<svg xmlns="http://www.w3.org/2000/svg" xmlns:xlink="http://www.w3.org/1999/xlink" width="1920" zoomAndPan="magnify" viewBox="0 0 1440 809.999993" height="1080" preserveAspectRatio="xMidYMid meet" version="1.0"><defs><filter x="0%" y="0%" width="100%" xlink:type="simple" xlink:actuate="onLoad" height="100%" id="id1" xlink:show="other"><feColorMatrix values="0 0 0 0 1 0 0 0 0 1 0 0 0 0 1 0 0 0 1 0" color-interpolation-filters="sRGB"/></filter><mask id="id2"><g filter="url(#id1)"><rect x="-144" width="1728" fill="rgb(0%, 0%, 0%)" y="-80.999999" height="971.999992" fill-opacity="0.8"/></g></mask><clipPath id="id3"><path d="M 0.601562 4 L 1061 4 L 1061 488 L 0.601562 488 Z M 0.601562 4 " clip-rule="nonzero"/></clipPath><clipPath id="id4"><rect x="0" width="1429" y="0" height="491"/></clipPath></defs><g mask="url(#id2)"><g transform="matrix(1, 0, 0, 1, 3, 4)"><g clip-path="url(#id4)"><path fill="rgb(28.62854%, 80.389404%, 70.199585%)" d="M 728.019531 379.648438 C 715.214844 397.601562 706.3125 417.695312 705.808594 440.722656 C 705.457031 457.738281 709.828125 474.164062 718.460938 487.980469 L 1413.308594 487.980469 C 1428.691406 454.539062 1434 417.699219 1402.808594 388.898438 C 1382.332031 370 1359.199219 367.578125 1332.660156 367.785156 C 1310.324219 367.957031 1290.425781 364.128906 1279.664062 341.914062 C 1270.898438 323.816406 1270.761719 302.859375 1265.425781 283.476562 C 1257.964844 256.375 1239.800781 232.378906 1215.742188 217.832031 C 1199.804688 208.195312 1181.386719 202.765625 1162.796875 201.945312 C 1147.808594 201.285156 1130.996094 209.734375 1116.785156 206.066406 C 1078.054688 196.074219 1080.308594 144.554688 1066.039062 115.535156 C 1043.160156 69.058594 1002.207031 32.257812 950.515625 20.121094 C 901.246094 8.492188 849.089844 23.398438 815.082031 60.785156 C 809.578125 66.871094 804.972656 73.230469 801.148438 79.828125 C 786.542969 105.234375 783.734375 134.109375 786.230469 163.222656 C 785.605469 163.027344 784.941406 162.871094 784.316406 162.714844 C 740.472656 151.59375 689.605469 174.152344 667.386719 220.746094 C 637.601562 283.144531 670.472656 351.316406 728.019531 379.648438 Z M 728.019531 379.648438 " fill-opacity="1" fill-rule="nonzero"/><g clip-path="url(#id3)"><path fill="rgb(28.62854%, 80.389404%, 70.199585%)" d="M 0.988281 406.878906 C 0.0585938 434.417969 14.722656 458.292969 34.460938 475.582031 C 39.535156 479.988281 44.832031 484.132812 50.386719 487.980469 L 1039.5625 487.980469 C 1041.820312 485.316406 1043.972656 482.503906 1046.007812 479.503906 C 1073.519531 438.972656 1061.375 387.855469 1017.898438 366.3125 C 998.605469 356.765625 976.386719 354.613281 954.835938 355.613281 C 960.203125 344.84375 964.019531 333.261719 966.054688 321.414062 C 971.644531 289.101562 964.164062 254.933594 939.648438 230.355469 C 922.820312 213.480469 900.125 204.058594 876.882812 200.175781 C 851.890625 196 825.917969 201.730469 805.15625 183.679688 C 792.804688 172.941406 785.578125 157.632812 778.691406 142.785156 C 771.863281 128.0625 762.996094 115.109375 755.34375 100.835938 C 751.714844 93.988281 747.640625 87.363281 743.164062 80.996094 C 713.984375 39.835938 667.285156 11.742188 618.21875 5.519531 C 543.664062 -3.871094 481.679688 32.691406 433.644531 85.707031 C 425.28125 94.933594 417.390625 104.746094 407.425781 112.214844 C 365.070312 143.941406 318.296875 111.09375 272.679688 109.113281 C 223.496094 106.980469 175.261719 126.429688 141.367188 162.132812 C 106.8125 198.554688 93.511719 243.015625 93.761719 292.347656 C 93.804688 301.566406 93.964844 310.964844 91.261719 319.777344 C 82.554688 348.148438 62.214844 342.820312 40.566406 350.539062 C 16.800781 359.019531 1.914062 381.191406 0.988281 406.878906 Z M 0.988281 406.878906 " fill-opacity="1" fill-rule="nonzero"/></g><path fill="rgb(28.62854%, 80.389404%, 70.199585%)" d="M 617.863281 409.320312 C 617.585938 446.5625 643.832031 472.238281 674.585938 487.980469 L 1154.886719 487.980469 C 1191.214844 430.308594 1208.308594 356.289062 1151.398438 304.375 C 1132.933594 287.546875 1108.285156 278.035156 1083.234375 279.039062 C 1071.195312 279.523438 1058.371094 282.207031 1047.605469 287.769531 C 1036.5625 293.476562 1028.511719 303.441406 1015.714844 306.292969 C 1006.699219 308.300781 997.113281 306.671875 988.6875 302.882812 C 973.785156 296.179688 962.683594 287.382812 948.855469 279.023438 C 920.054688 261.609375 885.957031 252.742188 850.371094 255.339844 C 823.984375 257.269531 797.109375 265.785156 775.71875 281.617188 C 753.621094 297.972656 743.136719 327.359375 717.710938 339.160156 C 706.53125 344.351562 694.667969 342 682.800781 343.847656 C 671.550781 345.59375 660.464844 349.132812 650.574219 354.824219 C 630.628906 366.292969 618.054688 386.109375 617.863281 409.320312 Z M 617.863281 409.320312 " fill-opacity="1" fill-rule="nonzero"/></g></g></g></svg>