<svg xmlns="http://www.w3.org/2000/svg" xmlns:xlink="http://www.w3.org/1999/xlink" width="1920" zoomAndPan="magnify" viewBox="0 0 1440 809.999993" height="1080" preserveAspectRatio="xMidYMid meet" version="1.0"><defs><filter x="0%" y="0%" width="100%" xlink:type="simple" xlink:actuate="onLoad" height="100%" id="id1" xlink:show="other"><feColorMatrix values="0 0 0 0 1 0 0 0 0 1 0 0 0 0 1 0 0 0 1 0" color-interpolation-filters="sRGB"/></filter><mask id="id2"><g filter="url(#id1)"><rect x="-144" width="1728" fill="rgb(0%, 0%, 0%)" y="-80.999999" height="971.999992" fill-opacity="1.0"/></g></mask><clipPath id="id3"><path d="M 374 0.761719 L 1438 0.761719 L 1438 622 L 374 622 Z M 374 0.761719 " clip-rule="nonzero"/></clipPath><clipPath id="id4"><path d="M 3 301 L 858 301 L 858 667.75 L 3 667.75 Z M 3 301 " clip-rule="nonzero"/></clipPath><clipPath id="id5"><path d="M 1074 521 L 1419 521 L 1419 667.75 L 1074 667.75 Z M 1074 521 " clip-rule="nonzero"/></clipPath><clipPath id="id6"><rect x="0" width="1438" y="0" height="671"/></clipPath></defs><g mask="url(#id2)"><g transform="matrix(1, 0, 0, 1, 2, 5)"><g clip-path="url(#id6)"><g clip-path="url(#id3)"><path fill="rgb(0.389099%, 37.649536%, 26.669312%)" d="M 487.355469 273.101562 C 551.679688 283.804688 611.445312 304.082031 670.050781 329.820312 C 661.617188 286.164062 656.929688 242.152344 658.703125 201.984375 C 661.5625 136.84375 684.3125 75.621094 705.277344 14.746094 C 712.042969 -5.015625 742.847656 -3.011719 749.355469 15.847656 C 760.726562 49.199219 775.835938 80.375 796.265625 108.917969 C 817.363281 138.425781 844.378906 161.488281 868.882812 187.796875 C 909.125 231.003906 927.394531 285.4375 941.925781 341.699219 C 961.210938 281.910156 988.996094 218.558594 1024.84375 171.457031 C 1059.96875 125.320312 1108.128906 91.769531 1154.773438 57.539062 C 1169.96875 46.394531 1192.257812 62.929688 1187.554688 79.839844 C 1179.367188 109.675781 1174.988281 139.835938 1176.046875 170.664062 C 1177.046875 202.460938 1185.828125 232.460938 1191.089844 263.558594 C 1198.574219 308.070312 1189.140625 350.707031 1175.007812 392.734375 C 1204.316406 382.453125 1234.417969 374.101562 1264.519531 366.777344 C 1312.304688 355.070312 1362.503906 345.625 1410.203125 357.753906 C 1422.8125 360.953125 1437.339844 368.753906 1437.390625 381.949219 C 1437.421875 391.332031 1429.773438 398.753906 1422.738281 404.804688 C 1329.152344 485.269531 1213.429688 576.21875 1095.359375 620.414062 L 695.855469 621.765625 C 649.976562 601.214844 608.605469 570.695312 577.609375 530.015625 C 552.1875 496.710938 530.945312 459.925781 502.339844 429.359375 C 477.386719 402.769531 447.574219 381.476562 422.34375 355.113281 C 411.046875 343.207031 375.5625 314.828125 374.660156 296.859375 C 372.253906 251.417969 462.808594 269.027344 487.355469 273.101562 Z M 487.355469 273.101562 " fill-opacity="1" fill-rule="nonzero"/></g><g clip-path="url(#id4)"><path fill="rgb(0.779724%, 50.979614%, 32.159424%)" d="M 67.226562 362.316406 C 123.714844 308.773438 210.210938 282.1875 282.707031 319.101562 C 314.953125 335.523438 336.292969 360.65625 360.945312 387.980469 C 377.421875 406.21875 388.921875 402.632812 409.839844 395.359375 C 426.796875 389.476562 443.375 386.484375 461.1875 386.855469 C 534.953125 388.40625 595.023438 445.097656 636.640625 509.0625 C 641.617188 516.65625 646.378906 524.410156 651.03125 532.21875 C 656.59375 541.683594 657.667969 549.761719 667.132812 548.742188 C 673.121094 548.15625 680.933594 540.613281 686.601562 537.941406 C 694.996094 534.035156 704.144531 531.09375 713.078125 529.167969 C 743.671875 522.589844 776.410156 529.058594 803.527344 545.855469 C 830.382812 562.433594 855.738281 591.742188 857.394531 627.949219 C 858.035156 643.191406 854.132812 656.617188 847.230469 667.792969 L 22.398438 667.792969 C 12.769531 644.636719 10.738281 616.613281 7.957031 590.402344 C -1.300781 503.269531 -1.164062 427.144531 67.226562 362.316406 Z M 67.226562 362.316406 " fill-opacity="1" fill-rule="nonzero"/></g><g clip-path="url(#id5)"><path fill="rgb(0.779724%, 50.979614%, 32.159424%)" d="M 1082.453125 621.554688 C 1121.316406 525.203125 1241.632812 499.609375 1332.40625 540.617188 C 1349.542969 548.359375 1365.675781 558.46875 1380.015625 570.941406 C 1400.878906 589.078125 1424.828125 619.042969 1417.585938 648.511719 C 1415.722656 656.179688 1412.566406 662.492188 1408.480469 667.796875 L 1083.101562 667.796875 C 1076.648438 661.703125 1072.988281 652.238281 1075.929688 641.128906 C 1077.722656 634.316406 1079.941406 627.789062 1082.453125 621.554688 Z M 1082.453125 621.554688 " fill-opacity="1" fill-rule="nonzero"/></g><path fill="rgb(74.899292%, 62.748718%, 30.198669%)" d="M 115.621094 403.113281 C 117.699219 402.09375 119.921875 401.40625 122.253906 401.207031 C 131.007812 400.457031 140.164062 405.289062 143.722656 413.550781 C 149.234375 426.34375 141.546875 441.484375 128.546875 445.789062 C 121.363281 448.171875 114.082031 447.660156 107.542969 443.671875 C 102.371094 440.519531 98.757812 434.800781 97.910156 428.800781 C 96.3125 417.472656 103.472656 404.445312 115.621094 403.113281 Z M 115.621094 403.113281 " fill-opacity="1" fill-rule="nonzero"/><path fill="rgb(74.899292%, 62.748718%, 30.198669%)" d="M 437.515625 463.1875 C 443.875 453.664062 456.34375 449.613281 467.132812 453.191406 C 477.582031 456.652344 485.511719 466.792969 487.328125 477.527344 C 489.714844 491.617188 477.472656 499.382812 465.527344 502.332031 C 452.792969 505.476562 437.765625 499.929688 433.878906 486.476562 C 432.90625 483.109375 432.996094 479.589844 433.871094 476.28125 C 433.699219 471.777344 434.820312 467.226562 437.515625 463.1875 Z M 437.515625 463.1875 " fill-opacity="1" fill-rule="nonzero"/><path fill="rgb(74.899292%, 62.748718%, 30.198669%)" d="M 194.21875 563.785156 C 195.382812 559.789062 200.917969 556.273438 205.09375 557.210938 C 213.445312 559.089844 222.382812 562.0625 225.734375 570.855469 C 229.496094 580.71875 224.085938 592.3125 212.960938 593.394531 C 204.003906 594.265625 193.886719 590.492188 190.226562 581.726562 C 187.707031 575.691406 189.570312 568.261719 194.1875 563.882812 Z M 194.21875 563.785156 " fill-opacity="1" fill-rule="nonzero"/><path fill="rgb(74.899292%, 62.748718%, 30.198669%)" d="M 755.242188 598.925781 C 754.957031 597.570312 754.925781 596.144531 755.269531 594.742188 C 756.414062 590.085938 760.679688 587.28125 765.417969 587.609375 C 774.003906 588.207031 780.359375 597.726562 779.5625 605.851562 C 779.320312 608.265625 778.492188 610.546875 777.1875 612.582031 C 774.960938 616.050781 771.671875 617.660156 767.574219 617.585938 C 762.855469 617.5 757.730469 614.832031 755.214844 610.761719 C 753.121094 607.367188 752.089844 602.664062 754.964844 599.25 Z M 755.242188 598.925781 " fill-opacity="1" fill-rule="nonzero"/><path fill="rgb(74.899292%, 62.748718%, 30.198669%)" d="M 517.003906 593.117188 C 520.960938 590.335938 526.539062 589.894531 530.542969 592.5625 C 541.257812 595.078125 547.554688 608.617188 540.617188 617.957031 C 534.398438 626.339844 522.082031 627.128906 514.671875 620.011719 C 507.074219 612.726562 508.445312 599.140625 517.003906 593.117188 Z M 517.003906 593.117188 " fill-opacity="1" fill-rule="nonzero"/><path fill="rgb(74.899292%, 62.748718%, 30.198669%)" d="M 1162.113281 598.019531 C 1170.355469 594.652344 1180.871094 598.539062 1183.871094 607.503906 C 1187.695312 618.929688 1179.875 630.191406 1168.277344 632.097656 C 1158.035156 633.785156 1146.320312 627.511719 1144.394531 616.796875 C 1142.601562 606.824219 1152.164062 596.21875 1162.113281 598.019531 Z M 1162.113281 598.019531 " fill-opacity="1" fill-rule="nonzero"/><path fill="rgb(74.899292%, 62.748718%, 30.198669%)" d="M 1338.761719 619.433594 C 1344.601562 625.527344 1343.945312 635.035156 1337.816406 640.597656 C 1332.671875 645.265625 1323.636719 645.832031 1318.265625 641.246094 C 1316.46875 639.707031 1315.285156 637.699219 1314.789062 635.585938 C 1313.59375 633.832031 1312.898438 631.730469 1312.867188 629.511719 C 1312.816406 626.078125 1314.0625 622.648438 1316.1875 619.949219 C 1322.027344 612.53125 1332.46875 612.875 1338.761719 619.433594 Z M 1338.761719 619.433594 " fill-opacity="1" fill-rule="nonzero"/><path fill="rgb(74.899292%, 62.748718%, 30.198669%)" d="M 1250.609375 569.414062 C 1251.09375 565.0625 1254.535156 560.707031 1259.097656 560.25 C 1262.445312 559.914062 1265.75 560.773438 1268.542969 562.648438 C 1274.566406 566.691406 1275.746094 575.347656 1271.332031 581.007812 C 1269.171875 583.78125 1265.992188 585.804688 1262.484375 586.3125 C 1257.441406 587.050781 1252.390625 584.6875 1250.511719 579.765625 C 1249.328125 576.660156 1249.445312 573.152344 1250.605469 570.070312 C 1250.609375 569.851562 1250.585938 569.640625 1250.609375 569.414062 Z M 1250.609375 569.414062 " fill-opacity="1" fill-rule="nonzero"/></g></g></g></svg>