<svg xmlns="http://www.w3.org/2000/svg" xmlns:xlink="http://www.w3.org/1999/xlink" width="1920" zoomAndPan="magnify" viewBox="0 0 1440 809.999993" height="1080" preserveAspectRatio="xMidYMid meet" version="1.0"><defs><filter x="0%" y="0%" width="100%" xlink:type="simple" xlink:actuate="onLoad" height="100%" id="id1" xlink:show="other"><feColorMatrix values="0 0 0 0 1 0 0 0 0 1 0 0 0 0 1 0 0 0 1 0" color-interpolation-filters="sRGB"/></filter><mask id="id2"><g filter="url(#id1)"><rect x="-144" width="1728" fill="rgb(0%, 0%, 0%)" y="-80.999999" height="971.999992" fill-opacity="1.0"/></g></mask><clipPath id="id3"><path d="M 0 0.761719 L 1064 0.761719 L 1064 622 L 0 622 Z M 0 0.761719 " clip-rule="nonzero"/></clipPath><clipPath id="id4"><path d="M 580 301 L 1435 301 L 1435 667.75 L 580 667.75 Z M 580 301 " clip-rule="nonzero"/></clipPath><clipPath id="id5"><path d="M 19 521 L 364 521 L 364 667.75 L 19 667.75 Z M 19 521 " clip-rule="nonzero"/></clipPath><clipPath id="id6"><rect x="0" width="1438" y="0" height="671"/></clipPath></defs><g mask="url(#id2)"><g transform="matrix(1, 0, 0, 1, 0, 5)"><g clip-path="url(#id6)"><g clip-path="url(#id3)"><path fill="rgb(0.779724%, 37.249756%, 29.019165%)" d="M 950.644531 273.101562 C 886.320312 283.804688 826.554688 304.082031 767.949219 329.820312 C 776.382812 286.164062 781.066406 242.152344 779.296875 201.984375 C 776.4375 136.847656 753.6875 75.621094 732.722656 14.746094 C 725.957031 -5.015625 695.152344 -3.011719 688.644531 15.847656 C 677.273438 49.199219 662.164062 80.375 641.734375 108.917969 C 620.636719 138.425781 593.621094 161.488281 569.117188 187.796875 C 528.875 231.003906 510.605469 285.4375 496.074219 341.699219 C 476.789062 281.910156 449.003906 218.558594 413.15625 171.457031 C 378.03125 125.320312 329.871094 91.769531 283.226562 57.539062 C 268.03125 46.394531 245.742188 62.929688 250.445312 79.839844 C 258.632812 109.675781 263.011719 139.835938 261.953125 170.664062 C 260.953125 202.460938 252.171875 232.460938 246.910156 263.558594 C 239.425781 308.070312 248.859375 350.707031 262.992188 392.734375 C 233.683594 382.453125 203.582031 374.101562 173.480469 366.777344 C 125.695312 355.070312 75.496094 345.625 27.796875 357.753906 C 15.1875 360.953125 0.660156 368.753906 0.609375 381.949219 C 0.578125 391.332031 8.226562 398.753906 15.261719 404.804688 C 108.847656 485.269531 224.570312 576.21875 342.640625 620.414062 L 742.144531 621.765625 C 788.023438 601.214844 829.394531 570.695312 860.390625 530.015625 C 885.8125 496.710938 907.054688 459.925781 935.660156 429.359375 C 960.613281 402.769531 990.425781 381.476562 1015.65625 355.113281 C 1026.953125 343.207031 1062.4375 314.828125 1063.339844 296.859375 C 1065.746094 251.417969 975.191406 269.027344 950.644531 273.101562 Z M 950.644531 273.101562 " fill-opacity="1" fill-rule="nonzero"/></g><g clip-path="url(#id4)"><path fill="rgb(0.779724%, 50.979614%, 32.159424%)" d="M 1370.773438 362.316406 C 1314.285156 308.773438 1227.789062 282.1875 1155.292969 319.101562 C 1123.046875 335.523438 1101.707031 360.65625 1077.054688 387.980469 C 1060.578125 406.21875 1049.078125 402.632812 1028.160156 395.359375 C 1011.203125 389.476562 994.625 386.484375 976.8125 386.855469 C 903.046875 388.40625 842.976562 445.097656 801.359375 509.0625 C 796.382812 516.65625 791.621094 524.410156 786.96875 532.21875 C 781.40625 541.683594 780.332031 549.761719 770.867188 548.742188 C 764.878906 548.15625 757.066406 540.613281 751.398438 537.941406 C 743.003906 534.035156 733.855469 531.09375 724.921875 529.167969 C 694.328125 522.589844 661.589844 529.058594 634.472656 545.855469 C 607.617188 562.433594 582.261719 591.742188 580.605469 627.949219 C 579.964844 643.191406 583.867188 656.617188 590.769531 667.792969 L 1415.601562 667.792969 C 1425.230469 644.636719 1427.261719 616.613281 1430.042969 590.402344 C 1439.300781 503.269531 1439.164062 427.144531 1370.773438 362.316406 Z M 1370.773438 362.316406 " fill-opacity="1" fill-rule="nonzero"/></g><g clip-path="url(#id5)"><path fill="rgb(0.779724%, 50.979614%, 32.159424%)" d="M 355.546875 621.554688 C 316.683594 525.203125 196.367188 499.609375 105.59375 540.617188 C 88.457031 548.359375 72.324219 558.472656 57.984375 570.941406 C 37.121094 589.078125 13.171875 619.042969 20.414062 648.511719 C 22.277344 656.179688 25.433594 662.492188 29.519531 667.796875 L 354.898438 667.796875 C 361.351562 661.703125 365.011719 652.238281 362.070312 641.128906 C 360.277344 634.316406 358.058594 627.789062 355.546875 621.554688 Z M 355.546875 621.554688 " fill-opacity="1" fill-rule="nonzero"/></g><path fill="rgb(74.899292%, 62.748718%, 30.198669%)" d="M 1322.378906 403.113281 C 1320.300781 402.09375 1318.078125 401.40625 1315.746094 401.207031 C 1306.992188 400.457031 1297.835938 405.289062 1294.277344 413.550781 C 1288.765625 426.34375 1296.453125 441.484375 1309.453125 445.789062 C 1316.636719 448.171875 1323.917969 447.660156 1330.457031 443.671875 C 1335.628906 440.519531 1339.242188 434.800781 1340.089844 428.800781 C 1341.6875 417.472656 1334.527344 404.445312 1322.378906 403.113281 Z M 1322.378906 403.113281 " fill-opacity="1" fill-rule="nonzero"/><path fill="rgb(74.899292%, 62.748718%, 30.198669%)" d="M 1000.484375 463.1875 C 994.125 453.664062 981.65625 449.613281 970.867188 453.191406 C 960.417969 456.652344 952.488281 466.792969 950.671875 477.527344 C 948.285156 491.617188 960.527344 499.382812 972.472656 502.332031 C 985.207031 505.476562 1000.234375 499.929688 1004.121094 486.476562 C 1005.09375 483.109375 1005.003906 479.589844 1004.128906 476.28125 C 1004.300781 471.777344 1003.179688 467.226562 1000.484375 463.1875 Z M 1000.484375 463.1875 " fill-opacity="1" fill-rule="nonzero"/><path fill="rgb(74.899292%, 62.748718%, 30.198669%)" d="M 1243.78125 563.785156 C 1242.617188 559.789062 1237.082031 556.273438 1232.90625 557.210938 C 1224.554688 559.089844 1215.617188 562.0625 1212.265625 570.855469 C 1208.503906 580.71875 1213.914062 592.3125 1225.039062 593.394531 C 1233.996094 594.265625 1244.113281 590.492188 1247.773438 581.726562 C 1250.289062 575.691406 1248.429688 568.261719 1243.8125 563.882812 Z M 1243.78125 563.785156 " fill-opacity="1" fill-rule="nonzero"/><path fill="rgb(74.899292%, 62.748718%, 30.198669%)" d="M 682.757812 598.925781 C 683.042969 597.570312 683.074219 596.144531 682.730469 594.742188 C 681.585938 590.085938 677.320312 587.28125 672.582031 587.609375 C 663.996094 588.207031 657.640625 597.726562 658.4375 605.851562 C 658.679688 608.265625 659.507812 610.546875 660.8125 612.582031 C 663.039062 616.050781 666.328125 617.660156 670.425781 617.585938 C 675.144531 617.5 680.269531 614.832031 682.785156 610.761719 C 684.878906 607.367188 685.910156 602.664062 683.035156 599.25 Z M 682.757812 598.925781 " fill-opacity="1" fill-rule="nonzero"/><path fill="rgb(74.899292%, 62.748718%, 30.198669%)" d="M 920.996094 593.117188 C 917.039062 590.335938 911.460938 589.894531 907.457031 592.5625 C 896.742188 595.078125 890.445312 608.617188 897.382812 617.957031 C 903.601562 626.339844 915.917969 627.128906 923.328125 620.011719 C 930.925781 612.726562 929.554688 599.140625 920.996094 593.117188 Z M 920.996094 593.117188 " fill-opacity="1" fill-rule="nonzero"/><path fill="rgb(74.899292%, 62.748718%, 30.198669%)" d="M 275.886719 598.019531 C 267.644531 594.652344 257.128906 598.539062 254.128906 607.503906 C 250.304688 618.929688 258.125 630.191406 269.722656 632.097656 C 279.964844 633.785156 291.679688 627.511719 293.605469 616.796875 C 295.398438 606.828125 285.835938 596.21875 275.886719 598.019531 Z M 275.886719 598.019531 " fill-opacity="1" fill-rule="nonzero"/><path fill="rgb(74.899292%, 62.748718%, 30.198669%)" d="M 99.238281 619.433594 C 93.398438 625.527344 94.054688 635.035156 100.183594 640.597656 C 105.328125 645.265625 114.363281 645.832031 119.734375 641.246094 C 121.53125 639.707031 122.714844 637.699219 123.210938 635.585938 C 124.40625 633.835938 125.101562 631.730469 125.132812 629.511719 C 125.183594 626.078125 123.9375 622.648438 121.8125 619.949219 C 115.972656 612.53125 105.53125 612.875 99.238281 619.433594 Z M 99.238281 619.433594 " fill-opacity="1" fill-rule="nonzero"/><path fill="rgb(74.899292%, 62.748718%, 30.198669%)" d="M 187.390625 569.414062 C 186.90625 565.0625 183.464844 560.707031 178.902344 560.25 C 175.554688 559.914062 172.25 560.773438 169.457031 562.648438 C 163.433594 566.691406 162.253906 575.347656 166.667969 581.007812 C 168.828125 583.78125 172.007812 585.804688 175.515625 586.316406 C 180.558594 587.050781 185.609375 584.6875 187.488281 579.765625 C 188.671875 576.660156 188.554688 573.152344 187.394531 570.070312 C 187.390625 569.851562 187.414062 569.640625 187.390625 569.414062 Z M 187.390625 569.414062 " fill-opacity="1" fill-rule="nonzero"/></g></g></g></svg>