<svg xmlns="http://www.w3.org/2000/svg" xmlns:xlink="http://www.w3.org/1999/xlink" width="1920" zoomAndPan="magnify" viewBox="0 0 1440 809.999993" height="1080" preserveAspectRatio="xMidYMid meet" version="1.0"><defs><clipPath id="id1"><path d="M 532 337 L 1437 337 L 1437 644.25 L 532 644.25 Z M 532 337 " clip-rule="nonzero"/></clipPath><clipPath id="id2"><path d="M 7 4 L 912 4 L 912 644.25 L 7 644.25 Z M 7 4 " clip-rule="nonzero"/></clipPath><clipPath id="id3"><path d="M 223 372 L 617 372 L 617 644.25 L 223 644.25 Z M 223 372 " clip-rule="nonzero"/></clipPath></defs><g clip-path="url(#id1)"><path fill="rgb(50.588989%, 34.509277%, 39.608765%)" d="M 1436.390625 644.34375 L 617.605469 644.34375 C 606.917969 636.371094 597.007812 628.0625 588.371094 620.367188 C 560.464844 595.609375 532.117188 560.832031 532.894531 521.511719 C 533.335938 501.683594 541.363281 485.734375 553.820312 475.378906 C 556.035156 467.292969 562.460938 460.753906 573.808594 460.257812 C 599.332031 459.097656 622.863281 451.453125 641.1875 432.902344 C 655.804688 418.171875 664.554688 398.84375 679.445312 384.222656 C 701.421875 362.570312 736.304688 350.054688 769.300781 343.464844 C 780.429688 341.25 791.335938 339.699219 801.46875 338.703125 C 844.875 334.550781 882.246094 347.507812 913.472656 377.855469 C 942.8125 406.433594 964.183594 441.378906 1010.472656 436.226562 C 1058.140625 430.96875 1102.597656 406.652344 1149.992188 398.128906 C 1195.167969 389.988281 1242.171875 393.808594 1283.085938 415.628906 C 1365.359375 459.492188 1402.953125 546.992188 1434.453125 629.894531 C 1436.390625 634.929688 1436.941406 639.800781 1436.390625 644.34375 Z M 1436.390625 644.34375 " fill-opacity="1" fill-rule="nonzero"/></g><g clip-path="url(#id2)"><path fill="rgb(59.999084%, 79.998779%, 38.819885%)" d="M 900.40625 580.542969 C 851.628906 599.597656 803.847656 620.917969 757.121094 644.34375 L 110.519531 644.34375 C 84.550781 637.03125 58.972656 628.28125 33.78125 618.148438 C 22.15625 613.496094 24.480469 598.542969 34.171875 593.613281 C 100.386719 559.773438 169.757812 541.335938 242.839844 541.277344 C 167.265625 436 63.621094 351.046875 8.535156 231.867188 C 3 219.792969 17.117188 207.832031 28.46875 212.597656 C 136.152344 257.839844 237.96875 314.941406 329.320312 387.433594 C 305.953125 265.980469 298.039062 142.371094 304.460938 18.652344 C 305.347656 1.984375 330.871094 0.15625 336.074219 15.054688 C 375.164062 127.144531 414.582031 239.070312 453.949219 351.050781 C 491.097656 250.8125 529.246094 151.011719 565.730469 50.554688 C 571.929688 33.496094 594.242188 43.1875 593.855469 58.472656 C 590.972656 170.785156 587.984375 283.09375 585.050781 395.410156 C 664.445312 349.003906 742.457031 300.265625 818.636719 248.707031 C 832.03125 239.625 847.535156 253.140625 842.5 267.757812 C 837.1875 283.265625 830.042969 297.5 821.628906 310.902344 C 815.980469 321.8125 810.222656 332.667969 804.464844 343.464844 C 772.742188 403 739.464844 461.429688 701.320312 517.140625 C 766.816406 523.066406 831.867188 532.425781 896.421875 545.496094 C 913.859375 549.035156 918.011719 573.621094 900.40625 580.542969 Z M 900.40625 580.542969 " fill-opacity="1" fill-rule="nonzero"/></g><g clip-path="url(#id3)"><path fill="rgb(32.939148%, 64.309692%, 39.219666%)" d="M 594.183594 627.953125 C 579.625 624.683594 565.003906 621.46875 550.390625 618.203125 C 548.507812 617.761719 546.402344 617.429688 544.246094 617.09375 C 549.78125 611.890625 555.039062 606.292969 560.464844 601.3125 C 572.21875 590.652344 584.691406 580.21875 596.882812 570.105469 C 603.289062 564.785156 622.824219 557.476562 614.628906 545.753906 C 612.613281 542.871094 608.960938 541.707031 605.523438 540.972656 C 589.691406 537.59375 574.042969 538.738281 557.921875 538.589844 C 540.46875 538.429688 523.007812 537.699219 505.5625 538.632812 C 516.167969 505.839844 526.707031 473.09375 537.144531 440.273438 C 539.554688 432.699219 545.746094 416.699219 532.683594 417.695312 C 519.199219 418.722656 504.410156 438.929688 495.835938 448.042969 C 477.527344 467.503906 461.335938 488.816406 444.878906 509.824219 C 435.921875 467.148438 427.230469 424.421875 420.285156 381.394531 C 417.371094 363.351562 403.949219 376.316406 401.652344 386.84375 C 394.460938 419.757812 384.671875 452.984375 380.257812 486.230469 C 379.207031 493.820312 378.042969 501.570312 376.9375 509.382812 C 359.351562 492.570312 341.007812 476.5 321.402344 462.074219 C 311.789062 454.996094 301.871094 448.316406 291.640625 442.164062 C 286.332031 438.96875 268.609375 423.375 263.945312 434.445312 C 262.796875 437.164062 263.3125 440.265625 263.894531 443.160156 C 270.113281 474.167969 282.640625 503.007812 295.988281 531.519531 C 304.84375 550.429688 313.683594 570.628906 324.539062 588.996094 C 293.234375 595.558594 261.675781 601.4375 230.113281 604.300781 C 222.304688 605.019531 220.253906 616.980469 227.898438 619.75 C 251.261719 628.335938 274.792969 636.421875 298.378906 644.339844 L 606.816406 644.339844 C 606.917969 637.253906 602.542969 629.835938 594.183594 627.953125 Z M 594.183594 627.953125 " fill-opacity="1" fill-rule="nonzero"/></g><path fill="rgb(84.309387%, 67.449951%, 58.039856%)" d="M 1070.121094 599.335938 C 1069.097656 594.160156 1064.339844 590.167969 1061.050781 597.207031 C 1060.066406 599.316406 1059.808594 601.660156 1059.347656 603.933594 C 1055.734375 621.808594 1034.484375 631.476562 1033.792969 650.070312 C 1033.617188 654.816406 1034.636719 656.714844 1039.347656 657.265625 C 1043.582031 657.761719 1048.796875 657.242188 1051.277344 653.484375 C 1053.558594 650.027344 1052.816406 645.566406 1052.292969 641.5 C 1050.90625 630.683594 1060.507812 623.46875 1065.949219 615.238281 C 1068.949219 610.703125 1070.777344 605.859375 1070.273438 600.410156 C 1070.242188 600.046875 1070.191406 599.6875 1070.121094 599.335938 Z M 1070.121094 599.335938 " fill-opacity="1" fill-rule="nonzero"/><path fill="rgb(74.119568%, 45.489502%, 30.198669%)" d="M 1027.917969 420.527344 C 1017.40625 418.144531 1008.105469 431.734375 1002.105469 437.667969 C 988.261719 451.355469 958.878906 471.289062 973.710938 492.816406 C 977.398438 498.164062 983.28125 501.992188 989.625 504.414062 C 1001.03125 508.757812 1017.574219 510.484375 1028.222656 503.25 C 1036.183594 497.835938 1038.746094 487.992188 1039.851562 478.921875 C 1041.34375 466.679688 1046.097656 424.644531 1027.917969 420.527344 Z M 1027.917969 420.527344 " fill-opacity="1" fill-rule="nonzero"/><path fill="rgb(74.119568%, 45.489502%, 30.198669%)" d="M 1077.269531 557.644531 C 1074.515625 556.953125 1071.425781 557.507812 1069.734375 559.722656 C 1068.15625 561.785156 1068.179688 564.601562 1067.828125 567.175781 C 1066.503906 576.867188 1059.917969 581.210938 1052.367188 586.136719 C 1047.03125 589.613281 1042.679688 596.128906 1045.726562 602.699219 C 1047.59375 606.714844 1052.109375 609.324219 1056.511719 608.921875 C 1060.226562 608.585938 1063.800781 606.332031 1067.460938 607.066406 C 1070.277344 607.636719 1072.589844 609.910156 1075.449219 610.1875 C 1080.347656 610.667969 1083.21875 604.839844 1085.09375 601.109375 C 1087.351562 596.605469 1088.6875 591.652344 1089.15625 586.640625 C 1090.082031 576.792969 1089.140625 563.75 1079.382812 558.460938 C 1078.726562 558.105469 1078.007812 557.828125 1077.269531 557.644531 Z M 1077.269531 557.644531 " fill-opacity="1" fill-rule="nonzero"/><path fill="rgb(44.709778%, 30.589294%, 22.349548%)" d="M 1000.488281 471.589844 C 995.941406 469.9375 991.140625 468.535156 986.300781 468.972656 C 981.464844 469.414062 976.570312 472.082031 974.882812 476.476562 C 972.730469 482.082031 976.34375 488.269531 980.835938 492.394531 C 991.097656 501.808594 1006.84375 505.242188 1020.308594 500.996094 C 1023.371094 500.03125 1026.40625 498.636719 1028.5 496.273438 C 1038.78125 484.683594 1008.445312 474.480469 1000.488281 471.589844 Z M 1000.488281 471.589844 " fill-opacity="1" fill-rule="nonzero"/><path fill="rgb(84.309387%, 67.449951%, 58.039856%)" d="M 997.382812 545.1875 C 997.972656 547.347656 998.578125 549.46875 999.1875 551.535156 C 1007.445312 579.644531 1007.515625 605.09375 997.839844 632.625 C 995.941406 638.027344 989.738281 648.382812 993.933594 653.785156 C 999.058594 660.382812 1014.277344 659.761719 1021.296875 657.683594 C 1023.535156 657.023438 1025.824219 656.035156 1027.121094 654.160156 C 1029.15625 651.214844 1025.820312 645.644531 1025.691406 642.480469 C 1025.421875 635.917969 1027.050781 628.9375 1027.289062 622.332031 C 1027.777344 608.890625 1026.976562 595.339844 1023.855469 582.199219 C 1021.375 571.761719 1017.511719 561.726562 1013.910156 551.621094 C 1010.511719 542.089844 1006.996094 532.296875 1005.136719 522.351562 C 1004.804688 510.019531 1006.027344 497.601562 1008.039062 485.472656 C 1008.808594 480.835938 1002.84375 479.265625 1000.347656 482.890625 C 987.917969 500.953125 991.832031 524.820312 997.382812 545.1875 Z M 997.382812 545.1875 " fill-opacity="1" fill-rule="nonzero"/><path fill="rgb(44.709778%, 30.589294%, 22.349548%)" d="M 1053.71875 596.320312 C 1053.257812 595.933594 1052.59375 595.785156 1052.003906 595.921875 C 1051.59375 595.871094 1051.203125 595.921875 1050.832031 596.089844 C 1050.257812 596.351562 1049.828125 596.796875 1049.617188 597.371094 C 1049.207031 598.503906 1049.769531 599.722656 1050.875 600.261719 C 1051.921875 600.773438 1053.152344 600.472656 1053.9375 599.675781 C 1054.273438 599.335938 1054.53125 598.808594 1054.613281 598.351562 C 1054.699219 597.878906 1054.640625 597.367188 1054.367188 596.960938 C 1054.199219 596.710938 1053.949219 596.515625 1053.71875 596.320312 Z M 1053.71875 596.320312 " fill-opacity="1" fill-rule="nonzero"/><path fill="rgb(44.709778%, 30.589294%, 22.349548%)" d="M 1078.703125 571.5 C 1078.558594 571.101562 1078.257812 570.75 1077.863281 570.554688 C 1077.664062 570.457031 1077.414062 570.398438 1077.167969 570.386719 C 1077.042969 570.324219 1076.914062 570.269531 1076.765625 570.230469 C 1076.285156 570.105469 1075.660156 570.21875 1075.257812 570.484375 C 1074.78125 570.796875 1074.511719 571.269531 1074.351562 571.789062 C 1074.066406 572.71875 1074.597656 573.703125 1075.449219 574.15625 C 1076.167969 574.539062 1077.152344 574.425781 1077.804688 573.96875 C 1078.597656 573.40625 1079.046875 572.433594 1078.703125 571.5 Z M 1078.703125 571.5 " fill-opacity="1" fill-rule="nonzero"/><path fill="rgb(44.709778%, 30.589294%, 22.349548%)" d="M 1082.417969 591.964844 C 1082.035156 591.6875 1081.632812 591.5 1081.140625 591.527344 C 1081.113281 591.53125 1081.089844 591.539062 1081.0625 591.539062 C 1080.722656 591.351562 1080.253906 591.339844 1079.890625 591.40625 C 1079.453125 591.484375 1079.167969 591.675781 1078.832031 591.960938 C 1078.050781 592.621094 1077.769531 593.886719 1078.152344 594.808594 C 1078.589844 595.859375 1079.679688 596.554688 1080.863281 596.496094 C 1082.042969 596.441406 1082.972656 595.652344 1083.273438 594.574219 C 1083.527344 593.679688 1083.199219 592.535156 1082.417969 591.964844 Z M 1082.417969 591.964844 " fill-opacity="1" fill-rule="nonzero"/><path fill="rgb(44.709778%, 30.589294%, 22.349548%)" d="M 1068.894531 586.195312 C 1068.863281 586.167969 1068.828125 586.140625 1068.792969 586.113281 C 1068.386719 585.484375 1067.648438 585.089844 1066.863281 585.128906 C 1065.3125 585.214844 1064.140625 586.675781 1064.238281 588.132812 C 1064.332031 589.515625 1065.515625 590.574219 1066.917969 590.667969 C 1067.714844 590.722656 1068.503906 590.445312 1069.054688 589.875 C 1069.554688 589.359375 1069.773438 588.675781 1069.75 587.980469 C 1069.730469 587.328125 1069.394531 586.636719 1068.894531 586.195312 Z M 1068.894531 586.195312 " fill-opacity="1" fill-rule="nonzero"/><path fill="rgb(44.709778%, 30.589294%, 22.349548%)" d="M 996.765625 453.566406 C 996.519531 453.359375 996.199219 453.160156 995.898438 453.023438 C 995.273438 452.746094 994.859375 452.722656 994.175781 452.699219 C 993.558594 452.679688 992.820312 453.035156 992.355469 453.433594 C 992.339844 453.441406 992.324219 453.449219 992.308594 453.457031 C 992.054688 453.648438 991.773438 453.832031 991.566406 454.070312 C 991.175781 454.527344 990.914062 454.921875 990.789062 455.503906 C 990.617188 456.324219 990.8125 457.214844 991.3125 457.910156 C 992.21875 459.179688 994.019531 459.691406 995.558594 459.210938 C 997.394531 458.644531 998.355469 456.820312 997.828125 455.132812 C 997.644531 454.546875 997.253906 453.976562 996.765625 453.566406 Z M 996.765625 453.566406 " fill-opacity="1" fill-rule="nonzero"/><path fill="rgb(44.709778%, 30.589294%, 22.349548%)" d="M 1018.605469 432.347656 C 1018.28125 432.097656 1017.890625 431.917969 1017.476562 431.832031 C 1016.082031 431.539062 1014.757812 432.289062 1014.078125 433.378906 C 1013.648438 434.070312 1013.523438 434.914062 1013.683594 435.6875 C 1014.023438 437.339844 1015.648438 438.59375 1017.503906 438.507812 C 1018.40625 438.464844 1019.328125 438.078125 1019.921875 437.441406 C 1020.71875 436.589844 1020.886719 435.53125 1020.613281 434.46875 C 1020.363281 433.515625 1019.570312 432.734375 1018.605469 432.347656 Z M 1018.605469 432.347656 " fill-opacity="1" fill-rule="nonzero"/><path fill="rgb(44.709778%, 30.589294%, 22.349548%)" d="M 1033.199219 457.972656 C 1032.6875 457.554688 1032.015625 457.320312 1031.335938 457.289062 C 1031.171875 457.222656 1030.996094 457.167969 1030.816406 457.136719 C 1028.230469 456.710938 1026.09375 458.722656 1026.046875 461.035156 C 1026.015625 462.847656 1027.550781 464.433594 1029.425781 464.828125 C 1031.339844 465.226562 1033.261719 464.402344 1034.171875 462.796875 C 1035.058594 461.222656 1034.632812 459.140625 1033.199219 457.972656 Z M 1033.199219 457.972656 " fill-opacity="1" fill-rule="nonzero"/><path fill="rgb(44.709778%, 30.589294%, 22.349548%)" d="M 1017.390625 463.957031 C 1016.898438 463.449219 1016.066406 463.320312 1015.367188 463.523438 C 1014.097656 463.894531 1013.390625 465.316406 1013.855469 466.464844 C 1014.332031 467.640625 1015.679688 468.175781 1016.957031 467.84375 C 1018.085938 467.550781 1018.867188 466.566406 1018.816406 465.488281 C 1018.785156 464.765625 1018.152344 464.113281 1017.390625 463.957031 Z M 1017.390625 463.957031 " fill-opacity="1" fill-rule="nonzero"/></svg>