<svg xmlns="http://www.w3.org/2000/svg" xmlns:xlink="http://www.w3.org/1999/xlink" width="1920" zoomAndPan="magnify" viewBox="0 0 1440 809.999993" height="1080" preserveAspectRatio="xMidYMid meet" version="1.0"><defs><clipPath id="id1"><path d="M 63 296 L 1423 296 L 1423 809.851562 L 63 809.851562 Z M 63 296 " clip-rule="nonzero"/></clipPath><clipPath id="id2"><path d="M 63 296 L 800 296 L 800 809.851562 L 63 809.851562 Z M 63 296 " clip-rule="nonzero"/></clipPath><clipPath id="id3"><path d="M 692 417 L 1357 417 L 1357 809.851562 L 692 809.851562 Z M 692 417 " clip-rule="nonzero"/></clipPath><clipPath id="id4"><path d="M 197 355 L 876 355 L 876 809.851562 L 197 809.851562 Z M 197 355 " clip-rule="nonzero"/></clipPath><clipPath id="id5"><path d="M 941 532 L 1423 532 L 1423 809.851562 L 941 809.851562 Z M 941 532 " clip-rule="nonzero"/></clipPath><clipPath id="id6"><path d="M 566 665 L 921 665 L 921 809.851562 L 566 809.851562 Z M 566 665 " clip-rule="nonzero"/></clipPath><clipPath id="id7"><path d="M 1 665 L 387 665 L 387 809.851562 L 1 809.851562 Z M 1 665 " clip-rule="nonzero"/></clipPath><clipPath id="id8"><path d="M 368.445312 145 L 539 145 L 539 255 L 368.445312 255 Z M 368.445312 145 " clip-rule="nonzero"/></clipPath></defs><g clip-path="url(#id1)"><path fill="rgb(59.999084%, 79.998779%, 38.819885%)" d="M 1356.429688 532.570312 C 1339.21875 511.492188 1318.722656 492.769531 1295.207031 477.402344 C 1190.410156 409.078125 1051.808594 404.03125 930.609375 438.523438 C 912.027344 443.792969 893.449219 450.242188 875.316406 457.945312 C 856.921875 426.695312 830.601562 399.351562 799.457031 376.835938 C 772.660156 357.414062 742.246094 341.570312 710.179688 329.851562 C 606.523438 292.003906 487.351562 291.488281 375.070312 305.050781 C 319.960938 311.757812 264.339844 323.402344 216.34375 350.304688 C 177.859375 371.933594 145.570312 401.011719 120.726562 434.289062 C 62.152344 512.78125 48.402344 611.210938 81.394531 696.671875 C 82.722656 700.136719 84.125 703.5625 85.632812 706.953125 C 100.488281 741.667969 121.722656 772.957031 147.710938 800.777344 C 149.773438 803.875 151.914062 806.894531 154.125 809.84375 L 1407.414062 809.84375 C 1439.261719 718.191406 1419.429688 609.589844 1356.429688 532.570312 Z M 1356.429688 532.570312 " fill-opacity="1" fill-rule="nonzero"/></g><g clip-path="url(#id2)"><path fill="rgb(59.999084%, 79.998779%, 38.819885%)" d="M 198.316406 759.980469 C 201.15625 743.472656 210.257812 727.773438 224.636719 718.855469 C 228.46875 716.457031 232.414062 714.765625 236.429688 713.660156 C 253.089844 708.941406 271.117188 713.402344 288.328125 715.464844 C 294.003906 716.125 299.753906 716.640625 305.578125 716.898438 C 315.824219 717.378906 326.109375 717.082031 335.730469 715.390625 C 359.765625 711.226562 379.816406 698.660156 385.789062 669.140625 C 394.855469 624.367188 377.679688 576.792969 401.269531 534.636719 C 420.695312 499.921875 455.125 485.070312 493.203125 497.414062 C 531.726562 509.90625 580.273438 537.542969 617.722656 507.253906 C 636.632812 491.960938 633.867188 474.714844 628.078125 453.414062 C 623.25 435.722656 621.152344 418.402344 628.152344 400.933594 C 641.203125 368.320312 675.484375 349.707031 709.800781 356.675781 C 738.589844 362.496094 771.355469 388.515625 799.445312 376.832031 C 772.648438 357.414062 742.234375 341.566406 710.167969 329.847656 C 606.511719 292 487.339844 291.484375 375.058594 305.046875 C 319.960938 311.757812 264.339844 323.402344 216.34375 350.304688 C 177.859375 371.933594 145.570312 401.011719 120.726562 434.289062 C 62.152344 512.78125 48.402344 611.210938 81.394531 696.671875 C 82.722656 700.136719 84.125 703.5625 85.632812 706.953125 C 100.488281 741.667969 121.722656 772.957031 147.710938 800.777344 C 149.773438 803.875 151.914062 806.894531 154.125 809.84375 L 208.566406 809.84375 C 199.609375 795.542969 195.039062 779.070312 198.316406 759.980469 Z M 198.316406 759.980469 " fill-opacity="1" fill-rule="nonzero"/></g><g clip-path="url(#id3)"><path fill="rgb(59.999084%, 79.998779%, 38.819885%)" d="M 960.613281 658.640625 C 989.625 633.472656 1029.875 648.210938 1058.8125 665.199219 C 1078.535156 676.769531 1097.664062 689.300781 1117.421875 700.722656 C 1130.730469 708.464844 1151.445312 721.066406 1167.628906 716.347656 C 1193.320312 708.863281 1179.3125 656.980469 1180.421875 637.816406 C 1181.453125 620.496094 1184.734375 601.292969 1203.460938 596.140625 C 1218.425781 592.011719 1234.3125 595.21875 1248.539062 600.671875 C 1269.808594 608.855469 1316.109375 648.394531 1327.386719 609.847656 C 1334.609375 585.046875 1332.585938 558.070312 1351.128906 537.65625 C 1352.820312 535.777344 1354.59375 534.078125 1356.433594 532.570312 C 1339.222656 511.492188 1318.722656 492.769531 1295.210938 477.402344 C 1190.414062 409.078125 1051.8125 404.03125 930.613281 438.523438 C 912.03125 443.792969 893.453125 450.242188 875.320312 457.945312 C 793.820312 492.328125 721.753906 550.664062 699.378906 632.363281 C 683.195312 691.546875 695.839844 755.667969 725.769531 809.839844 L 980.960938 809.839844 C 970.050781 792.449219 960.6875 774.058594 953.019531 755.078125 C 940.558594 724.199219 931.824219 683.625 960.613281 658.640625 Z M 960.613281 658.640625 " fill-opacity="1" fill-rule="nonzero"/></g><g clip-path="url(#id4)"><path fill="rgb(0.389099%, 37.649536%, 26.669312%)" d="M 799.457031 376.835938 C 771.367188 388.515625 738.597656 362.5 709.808594 356.679688 C 675.492188 349.710938 641.210938 368.324219 628.164062 400.9375 C 621.160156 418.40625 623.261719 435.726562 628.089844 453.414062 C 633.875 474.714844 636.640625 491.964844 617.730469 507.257812 C 580.277344 537.546875 531.734375 509.910156 493.214844 497.417969 C 455.136719 485.070312 420.707031 499.921875 401.28125 534.636719 C 377.6875 576.792969 394.867188 624.371094 385.796875 669.144531 C 379.828125 698.664062 359.777344 711.226562 335.742188 715.394531 C 326.121094 717.085938 315.835938 717.382812 305.589844 716.902344 C 299.765625 716.644531 294.015625 716.128906 288.339844 715.46875 C 271.125 713.40625 253.101562 708.945312 236.441406 713.664062 C 232.421875 714.765625 228.476562 716.464844 224.644531 718.859375 C 210.269531 727.777344 201.164062 743.476562 198.328125 759.984375 C 195.046875 779.074219 199.617188 795.542969 208.574219 809.84375 L 725.777344 809.84375 C 695.84375 755.671875 683.199219 691.550781 699.386719 632.367188 C 721.761719 550.664062 793.824219 492.332031 875.328125 457.949219 C 856.921875 426.695312 830.601562 399.355469 799.457031 376.835938 Z M 799.457031 376.835938 " fill-opacity="1" fill-rule="nonzero"/></g><g clip-path="url(#id5)"><path fill="rgb(0.389099%, 37.649536%, 26.669312%)" d="M 1356.429688 532.570312 C 1354.589844 534.078125 1352.816406 535.777344 1351.125 537.65625 C 1332.582031 558.070312 1334.609375 585.046875 1327.382812 609.847656 C 1316.105469 648.394531 1269.804688 608.855469 1248.539062 600.671875 C 1234.308594 595.21875 1218.421875 592.011719 1203.457031 596.140625 C 1184.730469 601.296875 1181.453125 620.496094 1180.417969 637.816406 C 1179.3125 656.980469 1193.320312 708.863281 1167.625 716.347656 C 1151.441406 721.0625 1130.726562 708.460938 1117.417969 700.722656 C 1097.660156 689.300781 1078.53125 676.769531 1058.808594 665.199219 C 1029.871094 648.207031 989.621094 633.46875 960.609375 658.640625 C 931.820312 683.625 940.558594 724.199219 953.015625 755.078125 C 960.679688 774.058594 970.042969 792.449219 980.957031 809.839844 L 1407.40625 809.839844 C 1439.261719 718.191406 1419.429688 609.589844 1356.429688 532.570312 Z M 1356.429688 532.570312 " fill-opacity="1" fill-rule="nonzero"/></g><g clip-path="url(#id6)"><path fill="rgb(35.289001%, 50.588989%, 45.489502%)" d="M 920.144531 809.835938 L 579.410156 809.835938 C 573.628906 799.46875 569.460938 788.257812 567.507812 776.203125 C 564.328125 756.804688 564.90625 725.546875 585.300781 715.519531 C 606.007812 705.304688 631.953125 724.894531 646.347656 738.171875 C 654.496094 745.671875 661.617188 753.859375 668.160156 762.507812 C 671.414062 749.613281 675.28125 736.875 680.292969 724.554688 C 688.828125 703.585938 704.863281 668.003906 730.695312 665.25 C 759.785156 662.148438 771.070312 697.542969 770.804688 720.460938 C 770.691406 729.222656 769.160156 737.792969 767.167969 746.289062 C 770.996094 741.160156 775.128906 736.335938 780.027344 732.09375 C 802.226562 712.769531 829.703125 705.042969 858.714844 705.5 C 868.359375 705.617188 877.847656 718.320312 875.285156 727.652344 C 871.613281 741.277344 866.292969 753.441406 859.324219 765.226562 C 881.0625 756.734375 902.226562 756.808594 913.25 777.8125 C 917.960938 786.765625 920.523438 798.472656 920.144531 809.835938 Z M 920.144531 809.835938 " fill-opacity="1" fill-rule="nonzero"/></g><g clip-path="url(#id7)"><path fill="rgb(35.289001%, 50.588989%, 45.489502%)" d="M 380.082031 809.839844 L 1.222656 809.839844 C 0.855469 798.492188 3.394531 786.769531 8.113281 777.816406 C 19.132812 756.8125 40.292969 756.738281 62.042969 765.210938 C 55.078125 753.457031 49.769531 741.257812 46.082031 727.660156 C 43.535156 718.300781 53.011719 705.625 62.667969 705.515625 C 70.449219 705.402344 78.148438 705.84375 85.632812 706.949219 C 106.054688 710.011719 125.078125 717.96875 141.332031 732.082031 C 146.234375 736.320312 150.363281 741.148438 154.199219 746.269531 C 152.207031 737.792969 150.695312 729.207031 150.585938 720.476562 C 150.289062 697.550781 161.605469 662.140625 190.6875 665.234375 C 212.4375 667.554688 227.21875 693.128906 236.433594 713.660156 C 238.203125 717.566406 239.714844 721.253906 241.078125 724.566406 C 246.089844 736.875 249.960938 749.625 253.203125 762.519531 C 259.765625 753.859375 266.878906 745.679688 275.023438 738.164062 C 282.730469 731.046875 293.789062 722.097656 305.582031 716.898438 C 315.644531 712.515625 326.222656 710.820312 335.734375 715.390625 C 335.84375 715.425781 335.957031 715.5 336.066406 715.539062 C 354.828125 724.75 356.820312 751.910156 354.535156 771.292969 C 362.570312 768.453125 371.230469 768.34375 378.347656 774.019531 C 389.777344 783.234375 387.824219 799.042969 380.082031 809.839844 Z M 380.082031 809.839844 " fill-opacity="1" fill-rule="nonzero"/></g><path fill="rgb(50.588989%, 34.509277%, 39.608765%)" d="M 444.984375 255.023438 C 448.851562 254.300781 452.757812 253.777344 456.675781 253.453125 C 467.789062 252.542969 478.984375 253.253906 490.109375 252.480469 C 501.234375 251.707031 512.605469 249.304688 521.722656 242.882812 C 532.109375 235.570312 544.679688 212.582031 529.617188 203.507812 C 525.398438 200.960938 520.882812 201.253906 516.398438 202.734375 C 511.625 204.304688 506.429688 204.632812 501.488281 206.210938 C 494.800781 208.34375 488.335938 211.308594 481.417969 212.492188 C 466.007812 215.132812 450.429688 208.671875 434.800781 209.195312 C 419.277344 209.714844 404.308594 217.738281 394.855469 229.984375 C 391.320312 234.570312 387.347656 239.648438 384.753906 244.800781 C 381.589844 251.085938 389.035156 255.121094 394.171875 256.726562 C 402.640625 259.371094 411.605469 260.386719 420.453125 259.777344 C 428.855469 259.199219 436.78125 256.554688 444.984375 255.023438 Z M 444.984375 255.023438 " fill-opacity="1" fill-rule="nonzero"/><path fill="rgb(84.309387%, 67.449951%, 58.039856%)" d="M 487.371094 270.988281 C 486.300781 260.128906 484.613281 249.332031 482.636719 238.601562 C 481.375 231.777344 483 221.882812 477.808594 216.441406 C 471.6875 210.019531 459.457031 204.367188 450.605469 206.738281 C 444.371094 208.414062 439.078125 213.269531 436.878906 219.339844 C 434.734375 225.261719 435.472656 231.773438 435.339844 238.074219 C 435.015625 253.402344 431.160156 269.023438 424.605469 282.878906 C 418.410156 295.976562 407.300781 303.628906 402.019531 317.621094 C 399.726562 323.699219 398.730469 330.792969 401.824219 336.503906 C 406.382812 344.902344 415.84375 342.105469 423.277344 342.347656 C 433.953125 342.699219 444.480469 342.105469 455.171875 342.171875 C 466.082031 342.238281 478.617188 341.648438 483.734375 330.105469 C 492.324219 310.746094 489.363281 291.15625 487.371094 270.988281 Z M 487.371094 270.988281 " fill-opacity="1" fill-rule="nonzero"/><g clip-path="url(#id8)"><path fill="rgb(85.488892%, 38.038635%, 34.899902%)" d="M 536.050781 200.695312 C 531.199219 192.496094 524.511719 185.089844 516.863281 179.539062 C 507.941406 173.066406 500.816406 164.332031 491.726562 158.15625 C 479.582031 149.90625 464.570312 144.277344 449.695312 146.058594 C 442.886719 146.871094 436.230469 149.039062 430.382812 152.644531 C 424.277344 156.417969 419.632812 161.644531 416.117188 167.855469 C 412.8125 173.683594 410.167969 180.265625 404.480469 184.234375 C 398.699219 188.261719 391.667969 189.992188 385.878906 194.023438 C 375.441406 201.292969 368.9375 214.105469 369.082031 226.820312 C 368.453125 233.066406 369.484375 239.210938 372.8125 244.3125 C 376.03125 249.253906 381.3125 252.800781 387.097656 253.921875 C 392.644531 254.996094 398.277344 253.785156 403.085938 250.90625 C 406.746094 248.714844 409.132812 243.585938 413.089844 242.28125 C 415.324219 241.542969 417.6875 242.628906 419.910156 243.398438 C 429.320312 246.652344 440.535156 243.835938 447.296875 236.527344 C 449.1875 234.484375 450.898438 232.023438 453.535156 231.125 C 455.945312 230.304688 458.574219 230.992188 461.054688 231.574219 C 471.25 233.964844 481.761719 234.515625 492.199219 234.566406 C 497.121094 234.589844 501.914062 234.796875 506.769531 235.046875 C 511.75 235.308594 516.796875 234.765625 521.511719 233.089844 C 527.820312 230.84375 533.480469 226.507812 536.550781 220.449219 C 539.796875 214.039062 539.738281 206.929688 536.050781 200.695312 Z M 536.050781 200.695312 " fill-opacity="1" fill-rule="nonzero"/></g><path fill="rgb(96.078491%, 87.059021%, 53.729248%)" d="M 514.25 205.347656 C 514.207031 204.441406 513.953125 203.625 513.535156 202.929688 C 513.3125 202.546875 513.023438 202.171875 512.652344 201.816406 C 509.847656 199.132812 504.542969 199.199219 501.261719 200.84375 C 497.382812 202.78125 495.742188 207.820312 498.855469 211.199219 C 502.183594 214.816406 507.847656 213.671875 511.308594 210.886719 C 513 209.527344 514.355469 207.609375 514.25 205.347656 Z M 514.25 205.347656 " fill-opacity="1" fill-rule="nonzero"/><path fill="rgb(96.078491%, 87.059021%, 53.729248%)" d="M 405.171875 211.566406 C 404.570312 210.839844 403.753906 210.28125 402.742188 210.015625 C 400.507812 209.425781 398.042969 210.492188 396.21875 211.753906 C 394.429688 212.996094 393.042969 214.859375 393.292969 217.144531 C 393.535156 219.40625 395.40625 221.046875 397.515625 221.613281 C 400.265625 222.351562 402.433594 221.222656 404.089844 219.414062 C 404.992188 218.703125 405.679688 217.753906 406.039062 216.648438 C 406.316406 216.140625 406.574219 215.628906 406.804688 215.125 C 407.566406 213.464844 406.503906 212.011719 405.171875 211.566406 Z M 405.171875 211.566406 " fill-opacity="1" fill-rule="nonzero"/><path fill="rgb(96.078491%, 87.059021%, 53.729248%)" d="M 442.90625 171.753906 C 444.980469 169.785156 445.5 166.257812 443.789062 163.902344 C 443.492188 163.492188 443.105469 163.171875 442.675781 162.953125 C 442.265625 162.628906 441.808594 162.363281 441.304688 162.167969 C 438.90625 161.238281 436.042969 161.695312 434.328125 163.710938 C 432.363281 166.023438 432.882812 169.375 434.832031 171.496094 C 437.007812 173.859375 440.59375 173.953125 442.90625 171.753906 Z M 442.90625 171.753906 " fill-opacity="1" fill-rule="nonzero"/><path fill="rgb(96.078491%, 87.059021%, 53.729248%)" d="M 480.238281 174.753906 C 480.210938 174.753906 480.183594 174.757812 480.15625 174.757812 C 478.621094 174.160156 476.851562 174.210938 475.226562 175.351562 C 473.011719 176.90625 472.03125 179.96875 472.871094 182.53125 C 473.746094 185.199219 476.421875 186.765625 479.132812 186.847656 C 482.390625 186.949219 485.53125 184.492188 485.972656 181.203125 C 486.441406 177.730469 483.726562 174.691406 480.238281 174.753906 Z M 480.238281 174.753906 " fill-opacity="1" fill-rule="nonzero"/><path fill="rgb(96.078491%, 87.059021%, 53.729248%)" d="M 440.515625 194.785156 C 438.136719 195.734375 436.503906 198.210938 436.648438 200.777344 C 436.800781 203.507812 439.128906 206.09375 441.992188 205.746094 C 442.867188 205.640625 443.632812 205.277344 444.242188 204.75 C 444.988281 204.558594 445.703125 204.179688 446.320312 203.609375 C 448.160156 201.910156 448.640625 199.003906 447.203125 196.898438 C 445.765625 194.789062 442.910156 193.828125 440.515625 194.785156 Z M 440.515625 194.785156 " fill-opacity="1" fill-rule="nonzero"/><path fill="rgb(79.219055%, 56.469727%, 43.919373%)" d="M 441.1875 254.042969 C 441.324219 255.796875 441.265625 257.535156 441.199219 259.289062 C 441.132812 261.082031 440.691406 262.726562 440.464844 264.5 C 440.257812 266.109375 442.238281 266.753906 443.09375 265.414062 C 444.105469 263.835938 444.726562 261.648438 445.164062 259.832031 C 445.636719 257.878906 445.628906 255.78125 445.488281 253.789062 C 445.296875 251.027344 440.96875 251.273438 441.1875 254.042969 Z M 441.1875 254.042969 " fill-opacity="1" fill-rule="nonzero"/><path fill="rgb(79.219055%, 56.469727%, 43.919373%)" d="M 427.453125 291.125 C 425.957031 293.589844 424.117188 296.066406 422.953125 298.695312 C 421.769531 301.371094 420.101562 303.8125 418.925781 306.5 C 418.300781 307.933594 420.210938 309.480469 421.304688 308.140625 C 423.144531 305.894531 424.460938 303.210938 426.351562 301.03125 C 428.34375 298.738281 429.789062 295.71875 431.390625 293.125 C 432.878906 290.710938 428.921875 288.703125 427.453125 291.125 Z M 427.453125 291.125 " fill-opacity="1" fill-rule="nonzero"/><path fill="rgb(79.219055%, 56.469727%, 43.919373%)" d="M 450.183594 278.832031 C 450.300781 280.871094 450.035156 282.804688 449.550781 284.785156 C 449.066406 286.757812 448.15625 288.515625 447.585938 290.441406 C 447.21875 291.695312 448.929688 292.875 449.972656 292.070312 C 453.878906 289.042969 455.050781 283.210938 454.808594 278.554688 C 454.65625 275.582031 450.015625 275.847656 450.183594 278.832031 Z M 450.183594 278.832031 " fill-opacity="1" fill-rule="nonzero"/><path fill="rgb(79.219055%, 56.469727%, 43.919373%)" d="M 468.980469 250.425781 C 468.90625 252.132812 468.8125 253.84375 468.789062 255.554688 C 468.769531 257.226562 468.566406 259.023438 468.828125 260.671875 C 469.101562 262.371094 471.359375 262.605469 471.847656 260.886719 C 472.304688 259.28125 472.3125 257.476562 472.484375 255.816406 C 472.664062 254.117188 472.769531 252.40625 472.898438 250.703125 C 473.109375 247.875 469.101562 247.53125 468.980469 250.425781 Z M 468.980469 250.425781 " fill-opacity="1" fill-rule="nonzero"/><path fill="rgb(79.219055%, 56.469727%, 43.919373%)" d="M 459.707031 313.355469 C 459.417969 315.78125 458.910156 318.144531 458.183594 320.472656 C 457.492188 322.699219 456.402344 325.027344 456.113281 327.339844 C 455.917969 328.902344 457.601562 329.667969 458.738281 328.671875 C 460.65625 326.984375 461.71875 324.234375 462.488281 321.859375 C 463.289062 319.390625 463.742188 316.808594 463.984375 314.226562 C 464.242188 311.484375 460.042969 310.539062 459.707031 313.355469 Z M 459.707031 313.355469 " fill-opacity="1" fill-rule="nonzero"/><path fill="rgb(79.219055%, 56.469727%, 43.919373%)" d="M 481.933594 277.992188 C 481.691406 275.660156 478.085938 275.839844 478.273438 278.210938 C 478.507812 281.167969 478.507812 284.207031 478.246094 287.160156 C 477.980469 290.125 477.25 293.019531 476.914062 295.972656 C 476.753906 297.367188 478.601562 298.144531 479.320312 296.808594 C 480.824219 294.019531 481.453125 290.742188 481.855469 287.625 C 482.265625 284.40625 482.273438 281.230469 481.933594 277.992188 Z M 481.933594 277.992188 " fill-opacity="1" fill-rule="nonzero"/></svg>